<svg xmlns="http://www.w3.org/2000/svg" width="241.161" height="299.872" viewBox="0 0 241.161 299.872">
  <g id="Group_106" data-name="Group 106" transform="translate(-88.156 -285.558)">
    <g id="Group_98" data-name="Group 98" transform="translate(88.156 393.145)">
      <path id="Path_72" data-name="Path 72" d="M143.842,611.037c-1.8,7.942-11.059,6.655-23.508.948-14.866-6.817-35.976-30.654-31.592-49.676V562.3a21.512,21.512,0,0,1,1.855-5.058c10.137-19.6,50.72,34.947,52.712,43.893C144.253,605.375,144.39,608.629,143.842,611.037Z" transform="translate(-88.156 -553.026)" fill="#16919b"/>
      <path id="Path_73" data-name="Path 73" d="M143.842,624.831c-1.8,7.942-11.059,6.655-23.508.948-14.866-6.817-35.976-30.654-31.592-49.676C95.3,592.474,110.771,618.744,143.842,624.831Z" transform="translate(-88.156 -566.82)" fill="#0e595b"/>
      <path id="Path_74" data-name="Path 74" d="M123.737,568.66c3.519,3.829,8.738,10.708,7.509,12.014-1.255,1.334-9.268-3.108-14.717-9.611-3.721-4.44-6.931-10.656-5.707-11.714C112.207,558.152,119.148,563.666,123.737,568.66Z" transform="translate(-101.546 -556.706)" fill="#b1eced"/>
    </g>
    <g id="Group_99" data-name="Group 99" transform="translate(154.8 441.259)">
      <path id="Path_75" data-name="Path 75" d="M377.27,703.372c0,33.118-23.234,72.018-60.147,72.018-22.874,0-41.7-14-52.7-32.727a75.312,75.312,0,0,1-10.583-37.674c0-33.928,37.03-32.311,60.5-32.311,25.738,0,56.29-1.972,61.987,22A37.073,37.073,0,0,1,377.27,703.372Z" transform="translate(-253.838 -672.638)" fill="#16919b"/>
      <path id="Path_76" data-name="Path 76" d="M393,736.119c0,33.118-23.234,72.018-60.147,72.018-22.874,0-41.7-14-52.7-32.727,22.925,10.791,88.227,33.143,111.9-47.988A37.073,37.073,0,0,1,393,736.119Z" transform="translate(-269.565 -705.386)" fill="#0e595b"/>
      <path id="Path_77" data-name="Path 77" d="M282.347,709.327c-4.8,7.819-1.4,18.945,6.83,23.313,8.7,4.617,20.543.478,23.779-8.7,3.074-8.718-2.85-18.49-11.336-21.23C294.814,700.512,286.334,702.827,282.347,709.327Z" transform="translate(-269.565 -690.131)" fill="#b1eced"/>
    </g>
    <g id="Group_100" data-name="Group 100" transform="translate(285.393 445.286)">
      <path id="Path_78" data-name="Path 78" d="M622.413,733.387c-.37,15.221-3.918,24.511-14.019,19.676a31.235,31.235,0,0,1-5.8-3.781c-7.167-5.717-38.388-66.108-16.325-66.625,5.7-.132,10.9,2,15.464,5.545C614.831,698.374,622.738,720.158,622.413,733.387Z" transform="translate(-578.499 -682.651)" fill="#16919b"/>
      <path id="Path_79" data-name="Path 79" d="M656.934,741.635c-.37,15.22-3.918,24.511-14.019,19.676,3.269-8.049,6.168-26.614-6.665-64.861C649.352,706.622,657.259,728.407,656.934,741.635Z" transform="translate(-613.02 -690.899)" fill="#0e595b"/>
      <path id="Path_80" data-name="Path 80" d="M600.566,731.7c4.08,9.459,10.157,25.922,8.41,26.732-1.576.73-9.731-11.175-14.116-24.929-2.443-7.662-3.97-16.7-2.7-17.12C593.732,715.852,599.3,728.753,600.566,731.7Z" transform="translate(-586.39 -702.802)" fill="#b1eced"/>
    </g>
    <g id="Group_105" data-name="Group 105" transform="translate(130.17 285.558)">
      <path id="Path_81" data-name="Path 81" d="M236.718,440.155a23.911,23.911,0,0,1-5.043-7.4,22.958,22.958,0,0,1,15.889-31.8,23.76,23.76,0,0,1,5.9-.654C258.062,426.557,236.718,440.155,236.718,440.155Z" transform="translate(-214.774 -354.142)" fill="#b1eced"/>
      <path id="Path_82" data-name="Path 82" d="M239.666,440.155a23.911,23.911,0,0,1-5.043-7.4c2.68-4.678,5.372-9.658,8.028-14.939,2.926-5.818,5.534-11.458,7.861-16.866a23.76,23.76,0,0,1,5.9-.654Z" transform="translate(-217.722 -354.142)" fill="#0e595b"/>
      <path id="Path_83" data-name="Path 83" d="M374.964,428.613c-2.367,32.813-77.6,43.655-112.789,23.822-9.777-5.51-16.462-13.391-17.638-23.822-5.408-47.978,26.356-91.906,62.849-91.906,13.229,0,28.763,5.063,41.627,16.28C365.5,367.346,377.625,391.8,374.964,428.613Z" transform="translate(-223.287 -316.133)" fill="#16919b"/>
      <path id="Path_84" data-name="Path 84" d="M215.987,366.181a34.087,34.087,0,0,1-11.6-11.721c-4.557-7.421-8.776-20.308-3-39.555l3.4,1.02c-4.308,14.361-3.457,26.647,2.53,36.519a31.186,31.186,0,0,0,10.352,10.612Z" transform="translate(-196.178 -303.1)" fill="#b1eced"/>
      <circle id="Ellipse_1" data-name="Ellipse 1" cx="8.26" cy="8.26" r="8.26" transform="translate(0 0)" fill="#16919b"/>
      <path id="Path_85" data-name="Path 85" d="M381.659,454.758c0,6.584-7.228,10.639-16.543,13.046-9.813,2.539-21.942,3.254-30.386,3.173-12.088-.117-35.4-2.215-43.812-9.873a8.482,8.482,0,0,1-3.122-6.346,25.415,25.415,0,0,1,7.775-18.267,26.853,26.853,0,0,1,18.778-7.562h40.756a26.773,26.773,0,0,1,20.968,9.98A25.276,25.276,0,0,1,381.659,454.758Z" transform="translate(-249.506 -371.259)" fill="#0e595b"/>
      <path id="Path_86" data-name="Path 86" d="M386.3,469.589c0,6.584-7.228,10.639-16.544,13.046-9.813,2.539-21.942,3.254-30.385,3.173-12.088-.117-35.4-2.215-43.812-9.873,23.944-.72,64.643-4.648,85.155-22.195A25.276,25.276,0,0,1,386.3,469.589Z" transform="translate(-254.146 -386.09)" fill="#0b3a3a"/>
      <path id="Path_87" data-name="Path 87" d="M367.354,574.76a28.2,28.2,0,0,1-18.109-6.28c-7.826-6.341-10.314-15.246-7.806-15.443,3.9-.3,13.214,4.359,23.726,4.359,12.078,0,20.309-3.041,26.518-3.294.279-.015.547-.021.816-.021C398.8,554.08,391.085,574.76,367.354,574.76Z" transform="translate(-281.01 -445.437)" fill="#0e595b"/>
      <path id="Path_88" data-name="Path 88" d="M402.072,452.806c-2.367,32.813-77.6,43.655-112.789,23.822,21.5,3.568,85.5,11.4,97.02-19.432,9.9-26.518-2.341-61.9-10.182-80.016C392.609,391.538,404.733,415.988,402.072,452.806Z" transform="translate(-250.395 -340.325)" fill="#0e595b"/>
      <path id="Path_89" data-name="Path 89" d="M296.7,377.47c1.944,2.565,13.9-2.8,21.926-8.71,7.694-5.662,15.549-14.593,13.816-17.12-1.539-2.245-10.367.955-15.919,3.9C304.1,362.147,294.584,374.676,296.7,377.47Z" transform="translate(-254.653 -324.608)" fill="#b1eced"/>
      <path id="Path_90" data-name="Path 90" d="M253.82,526.061c.285,8.766,5.641,17.087,7.808,16.52,2.274-.6,1.349-11.065.3-16.82-.3-1.652-2.142-11.757-4.505-11.714C255.564,514.081,253.636,520.383,253.82,526.061Z" transform="translate(-229.189 -422.139)" fill="#b1eced"/>
      <g id="Group_102" data-name="Group 102" transform="translate(98.064 64.058)">
        <g id="Group_101" data-name="Group 101">
          <path id="Path_91" data-name="Path 91" d="M465.167,461.712a11.873,11.873,0,1,1-1.042-4.853A11.863,11.863,0,0,1,465.167,461.712Z" transform="translate(-439.41 -447.822)" fill="#0b3a3a"/>
          <path id="Path_92" data-name="Path 92" d="M450.289,446.836A11.868,11.868,0,1,1,438.425,458.7a11.854,11.854,0,0,1,11.865-11.863Zm0-2.027a13.89,13.89,0,1,0,13.89,13.89,13.719,13.719,0,0,0-1.222-5.688,13.9,13.9,0,0,0-12.668-8.2Z" transform="translate(-436.397 -444.809)" fill="#b1eced"/>
        </g>
        <path id="Path_93" data-name="Path 93" d="M464.132,456.833c-4.428,10.706-15.413,10.387-21.873,9.142a11.858,11.858,0,0,1,21.873-9.142Z" transform="translate(-439.428 -447.819)" fill="#0e595b"/>
        <circle id="Ellipse_2" data-name="Ellipse 2" cx="3.938" cy="3.938" r="3.938" transform="translate(5.499 6.014)" fill="#b1eced"/>
        <path id="Path_94" data-name="Path 94" d="M480.218,485.012c.644.434-.233,4.565-3.169,6.146-2.609,1.4-6.065.376-6.146-.384-.059-.559,1.732-.712,4.729-2.526C478.786,486.338,479.77,484.711,480.218,485.012Z" transform="translate(-457.022 -468.819)" fill="#b1eced"/>
      </g>
      <g id="Group_104" data-name="Group 104" transform="translate(45.437 64.057)">
        <g id="Group_103" data-name="Group 103">
          <path id="Path_95" data-name="Path 95" d="M334.334,461.71a11.872,11.872,0,1,1-1.041-4.853A11.862,11.862,0,0,1,334.334,461.71Z" transform="translate(-308.578 -447.82)" fill="#0b3a3a"/>
          <path id="Path_96" data-name="Path 96" d="M319.457,446.834A11.867,11.867,0,1,1,307.592,458.7a11.853,11.853,0,0,1,11.865-11.863Zm0-2.027a13.89,13.89,0,1,0,13.89,13.89,13.718,13.718,0,0,0-1.221-5.688,13.9,13.9,0,0,0-12.669-8.2Z" transform="translate(-305.565 -444.807)" fill="#b1eced"/>
        </g>
        <path id="Path_97" data-name="Path 97" d="M333.3,456.831c-4.428,10.706-15.413,10.387-21.874,9.142a11.858,11.858,0,0,1,21.874-9.142Z" transform="translate(-308.595 -447.817)" fill="#0e595b"/>
        <circle id="Ellipse_3" data-name="Ellipse 3" cx="3.938" cy="3.938" r="3.938" transform="translate(5.499 6.014)" fill="#b1eced"/>
        <path id="Path_98" data-name="Path 98" d="M349.386,485.01c.644.433-.233,4.565-3.169,6.146-2.609,1.4-6.066.376-6.146-.384-.059-.559,1.732-.712,4.729-2.526C347.954,486.336,348.938,484.709,349.386,485.01Z" transform="translate(-326.19 -468.817)" fill="#b1eced"/>
      </g>
      <path id="Path_99" data-name="Path 99" d="M371.965,434.943c.115.788-5.216,2.644-10.737,3.154-8.958.826-17.166-2.01-17.045-3,.055-.456,5.719-.51,17.045-.6C370.327,434.42,371.9,434.527,371.965,434.943Z" transform="translate(-283.21 -374.572)" fill="#b1eced"/>
      <circle id="Ellipse_4" data-name="Ellipse 4" cx="4.432" cy="4.432" r="4.432" transform="matrix(0.951, -0.31, 0.31, 0.951, 1.503, 3.208)" fill="#b1eced"/>
    </g>
    <path id="Path_100" data-name="Path 100" d="M649.44,318.977l-8.125-1.683v-.005Z" transform="translate(-330.655 -18.968)" fill="#bbe1f4"/>
    <ellipse id="Ellipse_5" data-name="Ellipse 5" cx="64.126" cy="16.626" rx="64.126" ry="16.626" transform="translate(152.586 552.178)" fill="#b1eced"/>
  </g>
</svg>
