<svg xmlns="http://www.w3.org/2000/svg" width="42.122" height="39" viewBox="0 0 42.122 39">
  <g id="Group_119" data-name="Group 119" transform="translate(-96.882 -45.92)">
    <g id="Group_106" data-name="Group 106" transform="translate(109.137 55.006)" opacity="0.3">
      <path id="Path_80" data-name="Path 80" d="M248.772,165.2a8.921,8.921,0,0,0-4.613,6.849h2.749a15.242,15.242,0,0,1,1.864-6.849Z" transform="translate(-244.159 -164.361)" fill="#16919b"/>
      <path id="Path_81" data-name="Path 81" d="M405.016,269.92h-2.749a14.669,14.669,0,0,1-1.864,6.85,8.845,8.845,0,0,0,4.613-6.85Z" transform="translate(-387.403 -260.368)" fill="#16919b"/>
      <path id="Path_82" data-name="Path 82" d="M248.776,277.329a15.24,15.24,0,0,1-1.864-6.849h-2.749a9,9,0,0,0,4.613,6.849Z" transform="translate(-244.163 -260.881)" fill="#16919b"/>
      <path id="Path_83" data-name="Path 83" d="M405.012,172.049A8.845,8.845,0,0,0,400.4,165.2a15.239,15.239,0,0,1,1.864,6.849Z" transform="translate(-387.399 -164.361)" fill="#16919b"/>
      <path id="Path_84" data-name="Path 84" d="M303.374,155.12c-1.771.885-3.029,4.333-3.215,7.688h3.215Z" transform="translate(-295.5 -155.12)" fill="#16919b"/>
      <path id="Path_85" data-name="Path 85" d="M361.2,277.61c1.771-.885,3.029-4.333,3.215-7.688H361.2Z" transform="translate(-351.462 -260.37)" fill="#16919b"/>
      <path id="Path_86" data-name="Path 86" d="M361.2,155.12v7.688h3.215C364.229,159.453,362.971,156.052,361.2,155.12Z" transform="translate(-351.462 -155.12)" fill="#16919b"/>
      <path id="Path_87" data-name="Path 87" d="M303.374,277.61v-7.688h-3.215C300.345,273.323,301.557,276.725,303.374,277.61Z" transform="translate(-295.5 -260.37)" fill="#16919b"/>
    </g>
    <path id="Path_88" data-name="Path 88" d="M133.785,234.116a.907.907,0,0,0-1.211.513,17.054,17.054,0,0,1-2.609,4.193.86.86,0,0,0-.233.559,23.883,23.883,0,0,0,1.211,8.294l-.466-.046a7.368,7.368,0,0,1-5.824-3.867.98.98,0,0,0-1.165-.466,16.355,16.355,0,0,1-5.545.979,15.9,15.9,0,0,1-15.842-15.1l1.491,1.864a.9.9,0,0,0,1.3.14.973.973,0,0,0,.373-.746.814.814,0,0,0-.186-.559l-3.076-3.867a.991.991,0,0,0-.7-.326.948.948,0,0,0-.7.279L97.162,229.5a.923.923,0,0,0,1.3,1.3l1.771-1.817a17.749,17.749,0,0,0,17.706,17.194,18,18,0,0,0,5.452-.839,9.256,9.256,0,0,0,6.9,4.193l1.957.186h.093a.973.973,0,0,0,.746-.373,1,1,0,0,0,.14-.885l-.373-.838a21.434,21.434,0,0,1-1.3-7.828,17.362,17.362,0,0,0,2.7-4.426.963.963,0,0,0-.466-1.258Z" transform="translate(0 -164.805)" fill="#16919b"/>
    <path id="Path_89" data-name="Path 89" d="M190.311,61.3a.9.9,0,0,0-1.3,0l-1.771,1.817a17.711,17.711,0,0,0-34.014-6.384.93.93,0,0,0,1.724.7,15.856,15.856,0,0,1,30.427,5.452l-1.491-1.864a.9.9,0,0,0-1.3-.14.973.973,0,0,0-.373.746.813.813,0,0,0,.186.559l3.075,3.867a.991.991,0,0,0,.7.326h.047a.846.846,0,0,0,.652-.28l3.448-3.541a.848.848,0,0,0,0-1.259Z" transform="translate(-51.587)" fill="#16919b"/>
  </g>
</svg>
