<svg xmlns="http://www.w3.org/2000/svg" width="39.847" height="29.361" viewBox="0 0 39.847 29.361">
  <g id="Group_117" data-name="Group 117" transform="translate(-75.883 -17.658)">
    <path id="Path_63" data-name="Path 63" d="M147.539,193.923a46.817,46.817,0,0,1-4.526-1.767v-.05a7.35,7.35,0,0,0,4.194-6.626v-3.146a7.34,7.34,0,1,0-14.68,0v3.146a7.351,7.351,0,0,0,4.194,6.626v.05a46.857,46.857,0,0,1-4.526,1.767c-3.819,1.273-3.863,4.025-3.863,4.141v6.292h2.1v-6.264c0-.057.1-1.405,2.43-2.179a44.809,44.809,0,0,0,5.379-2.149,1.048,1.048,0,0,0,.58-.944v-1.414a1.048,1.048,0,0,0-.7-.989,5.25,5.25,0,0,1-3.5-4.937v-3.146a5.243,5.243,0,1,1,10.486,0v3.146a5.249,5.249,0,0,1-3.5,4.937,1.049,1.049,0,0,0-.7.989v1.414a1.048,1.048,0,0,0,.58.944,44.759,44.759,0,0,0,5.38,2.154c2.324.769,2.429,2.117,2.429,2.146v6.292h2.1v-6.292c0-.117-.044-2.868-3.863-4.141Z" transform="translate(-52.45 -157.337)" fill="#16919b" opacity="0.3"/>
    <path id="Path_64" data-name="Path 64" d="M381.723,221.67h-7.34a1.049,1.049,0,0,0-1.049,1.048v4.194a1.049,1.049,0,0,0,1.049,1.049h7.34a1.048,1.048,0,0,0,1.048-1.049v-4.194a1.048,1.048,0,0,0-1.048-1.048Zm-1.049,4.195h-5.243v-2.1h5.243Z" transform="translate(-275.431 -199.817)" fill="#16919b"/>
    <path id="Path_65" data-name="Path 65" d="M501.67,221.67h2.1v2.1h-2.1Z" transform="translate(-392.232 -199.817)" fill="#16919b"/>
    <path id="Path_66" data-name="Path 66" d="M548.33,221.67h2.1v2.1h-2.1Z" transform="translate(-434.698 -199.817)" fill="#16919b"/>
    <path id="Path_67" data-name="Path 67" d="M501.67,268.33h6.292v2.1H501.67Z" transform="translate(-392.232 -242.284)" fill="#16919b"/>
    <path id="Path_68" data-name="Path 68" d="M426.257,318.764l-2.839,2.839,1.483,1.483,3.146-3.146a1.048,1.048,0,0,0,.307-.741V315h-2.1Z" transform="translate(-321.013 -284.763)" fill="#16919b"/>
    <path id="Path_69" data-name="Path 69" d="M245,443.33h2.1v2.1H245Z" transform="translate(-158.631 -401.555)" fill="#16919b"/>
    <path id="Path_70" data-name="Path 70" d="M291.67,443.33h2.1v2.1h-2.1Z" transform="translate(-201.107 -401.555)" fill="#16919b"/>
    <path id="Path_71" data-name="Path 71" d="M198.33,443.33h2.1v2.1h-2.1Z" transform="translate(-116.156 -401.555)" fill="#16919b"/>
  </g>
</svg>
