<svg xmlns="http://www.w3.org/2000/svg" width="42.856" height="40" viewBox="0 0 42.856 40">
  <g id="Group_115" data-name="Group 115" transform="translate(-98.002 -44.799)">
    <path id="Path_49" data-name="Path 49" d="M105.343,240.506a3.67,3.67,0,1,1-3.67-3.67,3.67,3.67,0,0,1,3.67,3.67" transform="translate(0 -175.708)" fill="#16919b" opacity="0.3"/>
    <path id="Path_50" data-name="Path 50" d="M450.169,48.936a3.67,3.67,0,1,1-3.67-3.67,3.67,3.67,0,0,1,3.67,3.67" transform="translate(-315.505 -0.427)" fill="#16919b"/>
    <path id="Path_51" data-name="Path 51" d="M139.95,59.5c.035,0,.069-.005.1-.005a5.271,5.271,0,0,1,1.539.23,18.332,18.332,0,0,1,22.671-12.594,5.27,5.27,0,0,1,.665-1.5A19.958,19.958,0,0,0,139.951,59.5Z" transform="translate(-38.381)" fill="#16919b"/>
    <path id="Path_52" data-name="Path 52" d="M450.169,432.076a3.67,3.67,0,1,1-3.67-3.67,3.67,3.67,0,0,1,3.67,3.67" transform="translate(-315.505 -350.988)" fill="#16919b"/>
    <path id="Path_53" data-name="Path 53" d="M266.143,167.65l-.978.615a.934.934,0,0,1-.86.066.925.925,0,0,1-.548-.649l-.257-1.128a1.927,1.927,0,0,0-3.758,0l-.258,1.13a.94.94,0,0,1-1.4.582l-.982-.617a1.927,1.927,0,0,0-2.657,2.657l.615.978a.935.935,0,0,1,.066.86.925.925,0,0,1-.649.548l-1.127.258a1.927,1.927,0,0,0,0,3.757l1.127.257a.94.94,0,0,1,.583,1.409l-.615.978a1.927,1.927,0,0,0,2.657,2.657l.978-.615a.94.94,0,0,1,1.409.583l.257,1.127a1.927,1.927,0,0,0,3.758,0l.257-1.127a.94.94,0,0,1,1.409-.583l.978.615a1.927,1.927,0,0,0,2.657-2.657l-.615-.978a.936.936,0,0,1-.065-.863.919.919,0,0,1,.645-.545l1.131-.258a1.927,1.927,0,0,0,0-3.757l-1.128-.258a.939.939,0,0,1-.583-1.409l.615-.978a1.927,1.927,0,0,0-2.657-2.657ZM261.62,178.5a3.67,3.67,0,1,1,3.671-3.67A3.674,3.674,0,0,1,261.62,178.5Z" transform="translate(-140.762 -110.031)" fill="#16919b"/>
    <path id="Path_54" data-name="Path 54" d="M159.257,352.931a18.455,18.455,0,0,1-17.65-13.3,5.274,5.274,0,0,1-1.536.229c-.034,0-.067,0-.1,0a19.954,19.954,0,0,0,24.976,13.868,5.279,5.279,0,0,1-.665-1.5,18.354,18.354,0,0,1-5.023.708Z" transform="translate(-38.399 -269.761)" fill="#16919b"/>
    <path id="Path_55" data-name="Path 55" d="M527.069,121.545a18.358,18.358,0,0,1,0,24.629,5.32,5.32,0,0,1,1.054,1.267,20,20,0,0,0,0-27.163,5.335,5.335,0,0,1-1.054,1.267Z" transform="translate(-392.582 -69.061)" fill="#16919b" opacity="0.3"/>
  </g>
</svg>
