<svg id="Group_91" data-name="Group 91" xmlns="http://www.w3.org/2000/svg" width="28.213" height="40" viewBox="0 0 28.213 40">
  <path id="Path_72" data-name="Path 72" d="M227.187,154.125H209.826A5.425,5.425,0,0,1,204.4,148.7V123.916a5.426,5.426,0,0,1,5.426-5.426h17.362a5.425,5.425,0,0,1,5.425,5.426V148.7a5.425,5.425,0,0,1-5.425,5.425ZM209.826,120.66a3.256,3.256,0,0,0-3.255,3.255V148.7a3.255,3.255,0,0,0,3.255,3.255h17.362a3.255,3.255,0,0,0,3.255-3.255V123.916a3.256,3.256,0,0,0-3.255-3.255Z" transform="translate(-204.4 -114.125)" fill="#16919b"/>
  <path id="Path_73" data-name="Path 73" d="M205.482,85.852a1.085,1.085,0,0,1-1.085-1.085V81.056a5.47,5.47,0,0,1,3.06-4.9,7.727,7.727,0,0,1,2.583-.608h.586l3.32-.542L224.8,73.438a5.447,5.447,0,0,1,5.642,5.447,1.085,1.085,0,1,1-2.17,0,3.256,3.256,0,0,0-3.255-3.255l-10.851,1.541-3.255.456h-.651a5.907,5.907,0,0,0-1.888.413,3.276,3.276,0,0,0-1.8,3.017v3.711a1.085,1.085,0,0,1-1.085,1.085Z" transform="translate(-204.397 -73.435)" fill="#16919b"/>
  <g id="Group_105" data-name="Group 105" transform="translate(6.728 14.804)" opacity="0.3">
    <path id="Path_74" data-name="Path 74" d="M281.218,241a7.379,7.379,0,1,1,5.217-2.161A7.378,7.378,0,0,1,281.218,241Zm0-12.587h0a5.208,5.208,0,1,0,3.683,1.526,5.209,5.209,0,0,0-3.683-1.526Z" transform="translate(-273.839 -226.239)" fill="#16919b"/>
    <path id="Path_75" data-name="Path 75" d="M339.886,241a1.085,1.085,0,0,1-1.085-1.085V227.323a1.085,1.085,0,1,1,2.17,0v12.587h0A1.085,1.085,0,0,1,339.886,241Z" transform="translate(-332.507 -226.238)" fill="#16919b"/>
    <path id="Path_76" data-name="Path 76" d="M297.809,270.972H287.7a1.085,1.085,0,1,1,0-2.17h10.135a1.085,1.085,0,1,1,0,2.17Z" transform="translate(-285.374 -264.678)" fill="#16919b"/>
    <path id="Path_77" data-name="Path 77" d="M297.809,315.772H287.7a1.085,1.085,0,1,1,0-2.17h10.135a1.085,1.085,0,1,1,0,2.17Z" transform="translate(-285.374 -305.138)" fill="#16919b"/>
  </g>
  <path id="Path_78" data-name="Path 78" d="M285.487,181.368H272.466a1.085,1.085,0,0,1,0-2.17h13.021a1.085,1.085,0,0,1,0,2.17Z" transform="translate(-264.891 -168.951)" fill="#16919b"/>
  <path id="Path_79" data-name="Path 79" d="M310.648,405.368H303.6a1.085,1.085,0,0,1,0-2.17h7.053a1.085,1.085,0,0,1,0,2.17Z" transform="translate(-293.004 -371.249)" fill="#16919b"/>
</svg>
