<svg xmlns="http://www.w3.org/2000/svg" width="42.866" height="33.678" viewBox="0 0 42.866 33.678">
  <g id="Group_116" data-name="Group 116" transform="translate(-193.174 -156.799)">
    <path id="Path_57" data-name="Path 57" d="M203.893,178.23a10.716,10.716,0,0,0,10.463-8.42H221.5V176.7h4.593v-6.888h4.593a.766.766,0,0,1,.765.766V176.7h4.593v-6.123a5.358,5.358,0,0,0-5.358-5.358H214.356a10.716,10.716,0,1,0-10.463,13.012Zm0-16.839h0a6.124,6.124,0,1,1-4.33,1.794,6.124,6.124,0,0,1,4.33-1.794Z" transform="translate(0 0)" fill="#16919b"/>
    <path id="Path_58" data-name="Path 58" d="M382.591,371.9a2.3,2.3,0,1,1-2.3-2.3,2.3,2.3,0,0,1,2.3,2.3" transform="translate(-159.563 -183.718)" fill="#16919b" opacity="0.3"/>
    <path id="Path_59" data-name="Path 59" d="M214.591,371.9a2.3,2.3,0,1,1-2.3-2.3,2.3,2.3,0,0,1,2.3,2.3" transform="translate(-14.525 -183.718)" fill="#16919b" opacity="0.3"/>
    <path id="Path_60" data-name="Path 60" d="M298.591,371.9a2.3,2.3,0,1,1-2.3-2.3,2.3,2.3,0,0,1,2.3,2.3" transform="translate(-87.044 -183.718)" fill="#16919b"/>
    <path id="Path_61" data-name="Path 61" d="M466.591,371.9a2.3,2.3,0,1,1-2.3-2.3,2.3,2.3,0,0,1,2.3,2.3" transform="translate(-232.082 -183.718)" fill="#16919b"/>
  </g>
</svg>
