<svg xmlns="http://www.w3.org/2000/svg" width="38.884" height="39.935" viewBox="0 0 38.884 39.935">
  <g id="Group_114" data-name="Group 114" transform="translate(-204.316 -1597.23)">
    <g id="Group_80" data-name="Group 80" transform="translate(204.316 1597.23)">
      <path id="Path_44" data-name="Path 44" d="M148.234,251.7a4.9,4.9,0,0,0,4.782-3.888H157.9a4.916,4.916,0,1,0,9.458-2.627l8.67-8.67a4.476,4.476,0,0,0,1.208.158,4.939,4.939,0,1,0-4.939-4.939,4.857,4.857,0,0,0,1.734,3.731l-7.777,7.882a5.009,5.009,0,0,0-3.521-1.471,4.9,4.9,0,0,0-4.782,3.888h-4.887a4.915,4.915,0,0,0-9.721,1.051,4.844,4.844,0,0,0,4.887,4.887Zm29.005-22.752a2.837,2.837,0,1,1-2.837,2.837,2.859,2.859,0,0,1,2.837-2.837Zm-14.5,15.028a2.837,2.837,0,1,1-2.837,2.837A2.825,2.825,0,0,1,162.737,243.981Zm-14.5,0a2.837,2.837,0,1,1-2.837,2.837A2.825,2.825,0,0,1,148.234,243.981Z" transform="translate(-143.295 -211.823)" fill="#16919b"/>
      <path id="Path_45" data-name="Path 45" d="M147.738,77.077a4.939,4.939,0,1,0-4.939-4.939A4.934,4.934,0,0,0,147.738,77.077Zm0-7.724A2.837,2.837,0,1,1,144.9,72.19,2.825,2.825,0,0,1,147.738,69.353Z" transform="translate(-142.799 -67.198)" fill="#16919b"/>
      <path id="Path_46" data-name="Path 46" d="M147.738,92.614a4.934,4.934,0,0,0,4.939-4.939,4.8,4.8,0,0,0-.893-2.837l7.934-7.934a4.713,4.713,0,0,0,2.522.736,4.9,4.9,0,0,0,4.782-3.888h4.887a4.94,4.94,0,1,0,0-2.1h-4.887A4.915,4.915,0,0,0,157.3,72.7a5.107,5.107,0,0,0,.841,2.785l-7.934,7.934a4.932,4.932,0,1,0-2.47,9.2Zm29.005-22.752a2.837,2.837,0,1,1-2.837,2.837,2.894,2.894,0,0,1,2.837-2.837Zm-14.5,0A2.837,2.837,0,1,1,159.4,72.7,2.825,2.825,0,0,1,162.241,69.862Zm-14.5,14.976a2.837,2.837,0,1,1-2.837,2.837,2.825,2.825,0,0,1,2.837-2.837Z" transform="translate(-142.799 -67.707)" fill="#16919b" opacity="0.3"/>
      <path id="Path_47" data-name="Path 47" d="M302.3,227.36a4.939,4.939,0,1,0,4.939,4.939,4.934,4.934,0,0,0-4.939-4.939Zm0,7.777a2.837,2.837,0,1,1,2.837-2.837A2.825,2.825,0,0,1,302.3,235.137Z" transform="translate(-282.856 -212.332)" fill="#16919b"/>
      <path id="Path_48" data-name="Path 48" d="M461.8,392.458a4.939,4.939,0,1,0-4.939,4.939A4.934,4.934,0,0,0,461.8,392.458Zm-4.939,2.785a2.837,2.837,0,1,1,2.837-2.837,2.826,2.826,0,0,1-2.837,2.837Z" transform="translate(-422.913 -357.463)" fill="#16919b" opacity="0.3"/>
    </g>
  </g>
</svg>
