<svg xmlns="http://www.w3.org/2000/svg" width="17.9" height="17.9" viewBox="0 0 17.9 17.9">
  <path id="Path_109" data-name="Path 109" d="M9.95,1A8.95,8.95,0,1,0,18.9,9.95,8.96,8.96,0,0,0,9.95,1ZM9.425,5.393a12.264,12.264,0,0,1-2.342-.329c.121-.285.252-.559.393-.819A4.522,4.522,0,0,1,9.425,2.161Zm0,1.049V9.425H6.15a13.236,13.236,0,0,1,.573-3.371A13.29,13.29,0,0,0,9.425,6.443Zm0,4.032v2.983a13.29,13.29,0,0,0-2.7.388,13.236,13.236,0,0,1-.573-3.371Zm0,4.032v3.232a4.522,4.522,0,0,1-1.949-2.084c-.141-.26-.272-.534-.393-.819A12.264,12.264,0,0,1,9.425,14.507Zm1.049,0a12.264,12.264,0,0,1,2.342.329c-.121.285-.252.559-.393.819a4.522,4.522,0,0,1-1.949,2.084Zm0-1.049V10.475H13.75a13.236,13.236,0,0,1-.573,3.371A13.29,13.29,0,0,0,10.475,13.457Zm0-4.032V6.443a13.29,13.29,0,0,0,2.7-.388,13.236,13.236,0,0,1,.573,3.371Zm0-4.032V2.161a4.522,4.522,0,0,1,1.949,2.084c.141.26.272.534.393.819A12.264,12.264,0,0,1,10.475,5.393Zm2.871-1.649A7.952,7.952,0,0,0,12.5,2.47a7.907,7.907,0,0,1,2.8,1.666,9.863,9.863,0,0,1-1.463.633A10.522,10.522,0,0,0,13.345,3.744Zm-6.791,0a10.522,10.522,0,0,0-.486,1.025,9.863,9.863,0,0,1-1.463-.633A7.907,7.907,0,0,1,7.4,2.47,7.952,7.952,0,0,0,6.555,3.744Zm-.84,2.01A14.026,14.026,0,0,0,5.1,9.425H2.066a7.874,7.874,0,0,1,1.793-4.5A10.794,10.794,0,0,0,5.714,5.755ZM5.1,10.475a14.018,14.018,0,0,0,.614,3.671,10.794,10.794,0,0,0-1.855.833,7.874,7.874,0,0,1-1.793-4.5Zm.969,4.656a10.522,10.522,0,0,0,.486,1.025A7.9,7.9,0,0,0,7.4,17.43a7.907,7.907,0,0,1-2.8-1.666A9.863,9.863,0,0,1,6.069,15.131Zm7.276,1.025a10.522,10.522,0,0,0,.486-1.025,9.863,9.863,0,0,1,1.463.633,7.907,7.907,0,0,1-2.8,1.666A7.977,7.977,0,0,0,13.345,16.156Zm.84-2.01a14.018,14.018,0,0,0,.614-3.671h3.033a7.866,7.866,0,0,1-1.792,4.5A10.794,10.794,0,0,0,14.186,14.145Zm.614-4.72a14.018,14.018,0,0,0-.614-3.671,10.794,10.794,0,0,0,1.855-.833,7.866,7.866,0,0,1,1.792,4.5Z" transform="translate(-1 -1)" fill="#77838f"/>
</svg>
